<?xml version="1.0" encoding="UTF-8" standalone="no"?>
<!-- Created with Inkscape (http://www.inkscape.org/) -->

<svg
   version="1.1"
   id="svg157"
   width="800"
   height="800"
   viewBox="0 0 800 800"
   sodipodi:docname="balloon-dog-publicdomainvectors.org.svg"
   inkscape:version="1.2 (dc2aedaf03, 2022-05-15)"
   xmlns:inkscape="http://www.inkscape.org/namespaces/inkscape"
   xmlns:sodipodi="http://sodipodi.sourceforge.net/DTD/sodipodi-0.dtd"
   xmlns="http://www.w3.org/2000/svg"
   xmlns:svg="http://www.w3.org/2000/svg">
  <defs
     id="defs161">
    <clipPath
       clipPathUnits="userSpaceOnUse"
       id="clipPath173">
      <path
         d="M 0,600 H 600 V 0 H 0 Z"
         id="path171" />
    </clipPath>
  </defs>
  <sodipodi:namedview
     id="namedview159"
     pagecolor="#ffffff"
     bordercolor="#000000"
     borderopacity="0.25"
     inkscape:showpageshadow="2"
     inkscape:pageopacity="0.0"
     inkscape:pagecheckerboard="0"
     inkscape:deskcolor="#d1d1d1"
     showgrid="false"
     inkscape:zoom="1.04625"
     inkscape:cx="400"
     inkscape:cy="400.4779"
     inkscape:window-width="1920"
     inkscape:window-height="1017"
     inkscape:window-x="-8"
     inkscape:window-y="-8"
     inkscape:window-maximized="1"
     inkscape:current-layer="g165">
    <inkscape:page
       x="0"
       y="0"
       id="page163"
       width="800"
       height="800" />
  </sodipodi:namedview>
  <g
     id="g165"
     inkscape:groupmode="layer"
     inkscape:label="Page 1"
     transform="matrix(1.3333333,0,0,-1.3333333,0,800)">
    <g
       id="g167">
      <g
         id="g169"
         clip-path="url(#clipPath173)">
        <g
           id="g175"
           transform="translate(145.6406,217.9023)">
          <path
             d="m 0,0 h 352.185 c 29.459,0 53.56,-24.103 53.56,-53.563 0,-29.458 -24.101,-53.561 -53.56,-53.561 H 0 c -29.459,0 -53.562,24.103 -53.562,53.561 C -53.562,-24.103 -29.459,0 0,0"
             style="fill:#c0e365;fill-opacity:1;fill-rule:evenodd;stroke:none"
             id="path177" />
        </g>
        <g
           id="g179"
           transform="translate(168.2007,437.1514)">
          <path
             d="M 0,0 2.613,63.138 C 3.18,76.847 14.861,87.599 28.569,87.032 H 28.57 C 42.277,86.464 53.03,74.782 52.463,61.075 L 49.85,-2.063 C 49.282,-15.77 37.603,-26.524 23.894,-25.957 H 23.893 C 10.185,-25.39 -0.567,-13.709 0,0"
             style="fill:#fab40a;fill-opacity:1;fill-rule:evenodd;stroke:none"
             id="path181" />
        </g>
        <g
           id="g183"
           transform="translate(220.5132,494.583)">
          <path
             d="m 0,0 -2.463,-59.495 c -0.432,-10.484 -7.369,-19.239 -16.74,-22.524 -2.02,0.732 -3.977,1.736 -5.815,3.027 v 0.001 c -11.226,7.889 -13.957,23.528 -6.068,34.753 z"
             style="fill:#f7a30e;fill-opacity:1;fill-rule:evenodd;stroke:none"
             id="path185" />
        </g>
        <g
           id="g187"
           transform="translate(199.6538,523.8936)">
          <path
             d="m 0,0 c 12.301,-1.956 21.537,-12.938 21.01,-25.668 l -2.614,-63.137 c -0.526,-12.73 -10.637,-22.911 -23.058,-23.844 7.56,1.063 13.568,7.441 13.894,15.332 l 3.349,80.89 C 12.907,-8.536 7.448,-1.684 0,0"
             style="fill:#f2a50f;fill-opacity:1;fill-rule:evenodd;stroke:none"
             id="path189" />
        </g>
        <g
           id="g191"
           transform="translate(220.5132,494.583)">
          <path
             d="m 0,0 -2.463,-59.495 c -0.433,-10.485 -7.371,-19.239 -16.744,-22.523 -0.344,0.125 -0.687,0.258 -1.028,0.399 4.909,2.607 8.363,7.682 8.608,13.612 l 2.264,54.682 z"
             style="fill:#e59c13;fill-opacity:1;fill-rule:evenodd;stroke:none"
             id="path193" />
        </g>
        <g
           id="g195"
           transform="translate(175.8013,499.1538)">
          <path
             d="m 0,0 -0.141,-3.411 c -0.225,-5.412 4.02,-10.024 9.433,-10.248 5.412,-0.224 10.024,4.021 10.248,9.433 l 0.142,3.412 C 19.905,4.599 15.66,9.21 10.247,9.434 4.835,9.658 0.225,5.412 0,0 m -2.578,-62.291 1.197,28.935 c 0.225,5.413 4.835,9.658 10.248,9.434 5.413,-0.223 9.658,-4.836 9.434,-10.248 l -1.197,-28.935 c -0.225,-5.413 -4.836,-9.658 -10.249,-9.434 -5.413,0.224 -9.657,4.835 -9.433,10.248"
             style="fill:#fad41a;fill-opacity:1;fill-rule:evenodd;stroke:none"
             id="path197" />
        </g>
        <g
           id="g199"
           transform="translate(193.7515,456.498)">
          <path
             d="m 0,0 -0.847,-20.45 c -0.168,-4.058 -2.802,-7.461 -6.393,-8.814 -2.786,7.463 -1.984,16.138 2.916,23.111 z"
             style="fill:#fbca07;fill-opacity:1;fill-rule:evenodd;stroke:none"
             id="path201" />
        </g>
        <g
           id="g203"
           transform="translate(189.272,510.0669)">
          <path
             d="m 0,0 -0.095,-2.294 c -0.118,-2.825 2.101,-5.234 4.927,-5.352 2.826,-0.116 5.235,2.101 5.352,4.928 l 0.095,2.293 C 10.396,2.401 8.179,4.81 5.352,4.927 H 5.351 C 2.525,5.044 0.116,2.825 0,0 m -1.982,-47.876 1.24,29.943 c 0.116,2.826 2.525,5.044 5.351,4.926 H 4.61 c 2.826,-0.116 5.044,-2.526 4.927,-5.352 L 8.298,-48.301 C 8.181,-51.127 5.772,-53.344 2.946,-53.228 H 2.945 c -2.827,0.118 -5.044,2.526 -4.927,5.352"
             style="fill:#fbef93;fill-opacity:1;fill-rule:evenodd;stroke:none"
             id="path205" />
        </g>
        <g
           id="g207"
           transform="translate(244.3071,310.2793)">
          <path
             d="m 0,0 h 184.897 c 13.723,0 24.947,-11.226 24.947,-24.945 0,-13.72 -11.224,-24.947 -24.947,-24.947 L 0,-49.892 c -13.721,0 -24.946,11.227 -24.946,24.947 C -24.946,-11.226 -13.721,0 0,0"
             style="fill:#e13022;fill-opacity:1;fill-rule:evenodd;stroke:none"
             id="path209" />
        </g>
        <g
           id="g211"
           transform="translate(453.9795,282.4404)">
          <path
             d="m 0,0 c -1.443,-12.372 -12.033,-22.053 -24.775,-22.053 h -184.897 c -12.743,0 -23.331,9.681 -24.777,22.053 1.374,-7.51 7.995,-13.249 15.892,-13.249 H -15.891 C -7.994,-13.249 -1.373,-7.51 0,0"
             style="fill:#cc2d23;fill-opacity:1;fill-rule:evenodd;stroke:none"
             id="path213" />
        </g>
        <g
           id="g215"
           transform="translate(394.4346,305.249)">
          <path
             d="m 0,0 h -18.09 c -5.416,0 -9.849,-4.43 -9.849,-9.85 0,-5.416 4.433,-9.847 9.849,-9.847 H 0 c 5.416,0 9.85,4.431 9.85,9.847 C 9.85,-4.43 5.416,0 0,0 m -150.208,0 h 102.149 c 5.416,0 9.848,-4.43 9.848,-9.85 0,-5.416 -4.432,-9.847 -9.848,-9.847 h -102.149 c -5.418,0 -9.85,4.431 -9.85,9.847 0,5.42 4.432,9.85 9.85,9.85"
             style="fill:#f04321;fill-opacity:1;fill-rule:evenodd;stroke:none"
             id="path217" />
        </g>
        <g
           id="g219"
           transform="translate(427.6689,292.2432)">
          <path
             d="m 0,0 h -9.447 c -2.83,0 -5.145,-2.316 -5.145,-5.145 v -0.002 c 0,-2.828 2.315,-5.142 5.145,-5.142 H 0 c 2.83,0 5.145,2.314 5.145,5.142 v 0.002 C 5.145,-2.316 2.83,0 0,0 m -78.457,0 h 53.355 c 2.831,0 5.145,-2.316 5.145,-5.145 v -0.002 c 0,-2.828 -2.314,-5.142 -5.145,-5.142 h -53.355 c -2.828,0 -5.143,2.314 -5.143,5.142 v 0.002 c 0,2.829 2.315,5.145 5.143,5.145"
             style="fill:#f47366;fill-opacity:1;fill-rule:evenodd;stroke:none"
             id="path221" />
        </g>
        <g
           id="g223"
           transform="translate(124.4966,204.7109)">
          <path
             d="m 0,0 55.518,73.923 c 8.24,10.971 23.958,13.205 34.928,4.967 10.97,-8.239 13.205,-23.958 4.966,-34.927 L 39.893,-29.96 C 31.654,-40.931 15.937,-43.167 4.966,-34.927 -6.006,-26.686 -8.24,-10.971 0,0"
             style="fill:#e13022;fill-opacity:1;fill-rule:evenodd;stroke:none"
             id="path225" />
        </g>
        <g
           id="g227"
           transform="translate(217.1548,281.7285)">
          <path
             d="m 0,0 c 9.022,-8.587 10.405,-22.867 2.754,-33.055 l -55.519,-73.922 c -7.651,-10.19 -21.752,-12.844 -32.512,-6.569 6.831,-3.411 15.394,-1.564 20.137,4.751 L 1.05,-20.664 C 5.792,-14.351 5.179,-5.61 0,0"
             style="fill:#cc2d23;fill-opacity:1;fill-rule:evenodd;stroke:none"
             id="path229" />
        </g>
        <g
           id="g231"
           transform="translate(172.6289,260.4238)">
          <path
             d="m 0,0 -2.05,-2.729 c -3.253,-4.331 -2.371,-10.538 1.96,-13.79 4.332,-3.253 10.538,-2.37 13.79,1.959 l 2.051,2.731 C 19.003,-7.497 18.122,-1.291 13.79,1.962 9.458,5.214 3.253,4.331 0,0 m -44.16,-58.797 24.112,32.105 c 3.253,4.33 9.458,5.213 13.79,1.96 4.331,-3.255 5.214,-9.459 1.96,-13.79 l -24.111,-32.105 c -3.253,-4.331 -9.459,-5.214 -13.79,-1.96 -4.332,3.253 -5.214,9.457 -1.961,13.79"
             style="fill:#f04321;fill-opacity:1;fill-rule:evenodd;stroke:none"
             id="path233" />
        </g>
        <g
           id="g235"
           transform="translate(198.6929,273.4688)">
          <path
             d="m 0,0 -1.379,-1.834 c -1.698,-2.263 -1.237,-5.507 1.025,-7.204 v 0 c 2.262,-1.699 5.503,-1.238 7.203,1.022 l 1.377,1.838 c 1.7,2.261 1.239,5.503 -1.023,7.201 H 7.202 C 4.94,2.722 1.698,2.261 0,0 m -34.008,-45.281 23.23,30.927 c 1.698,2.265 4.94,2.726 7.202,1.027 l 10e-4,-0.002 c 2.262,-1.697 2.722,-4.94 1.023,-7.202 L -25.78,-51.46 c -1.7,-2.262 -4.94,-2.723 -7.203,-1.024 v 0.002 c -2.263,1.698 -2.724,4.938 -1.025,7.201"
             style="fill:#f47366;fill-opacity:1;fill-rule:evenodd;stroke:none"
             id="path237" />
        </g>
        <g
           id="g239"
           transform="translate(222.9077,389.2783)">
          <path
             d="m 0,0 5.874,-74.241 c 1.082,-13.679 -9.225,-25.753 -22.901,-26.835 -13.677,-1.082 -25.755,9.223 -26.836,22.9 l -5.875,74.241 c -1.081,13.676 9.223,25.754 22.901,26.836 C -13.158,23.983 -1.083,13.678 0,0"
             style="fill:#e13022;fill-opacity:1;fill-rule:evenodd;stroke:none"
             id="path241" />
        </g>
        <g
           id="g243"
           transform="translate(202.9829,288.1436)">
          <path
             d="m 0,0 c -12.447,0.464 -22.934,10.256 -23.939,22.958 l -5.874,74.241 c -1.005,12.702 7.812,24.023 20.031,26.439 -7.379,-1.962 -12.577,-9.014 -11.954,-16.888 l 7.275,-91.953 C -13.838,6.924 -7.596,0.777 0,0"
             style="fill:#cc2d23;fill-opacity:1;fill-rule:evenodd;stroke:none"
             id="path245" />
        </g>
        <g
           id="g247"
           transform="translate(198.2495,387.4087)">
          <path
             d="m 0,0 0.271,-3.403 c 0.426,-5.4 5.194,-9.47 10.593,-9.043 5.401,0.428 9.47,5.196 9.042,10.596 L 19.637,1.553 C 19.21,6.953 14.442,11.022 9.042,10.595 3.642,10.168 -0.427,5.399 0,0 M 4.382,-55.385 2.634,-33.28 c -0.427,5.4 3.64,10.167 9.041,10.594 5.401,0.429 10.168,-3.641 10.596,-9.04 l 1.749,-22.105 c 0.426,-5.4 -3.642,-10.169 -9.042,-10.595 -5.4,-0.428 -10.168,3.641 -10.596,9.041"
             style="fill:#f04321;fill-opacity:1;fill-rule:evenodd;stroke:none"
             id="path249" />
        </g>
        <g
           id="g251"
           transform="translate(71.2607,446.6484)">
          <path
             d="m 0,0 h 92.449 c 13.72,0 24.946,-11.227 24.946,-24.947 0,-13.72 -11.227,-24.946 -24.946,-24.946 H 0 c -13.72,0 -24.947,11.226 -24.947,24.946 C -24.947,-11.225 -13.721,0 0,0"
             style="fill:#e13022;fill-opacity:1;fill-rule:evenodd;stroke:none"
             id="path253" />
        </g>
        <g
           id="g255"
           transform="translate(188.4858,418.8081)">
          <path
             d="m 0,0 c -1.445,-12.371 -12.035,-22.053 -24.776,-22.053 h -92.449 c -12.742,0 -23.331,9.682 -24.776,22.053 1.374,-7.51 7.994,-13.248 15.892,-13.248 H -15.893 C -7.995,-13.248 -1.374,-7.51 0,0"
             style="fill:#cc2d23;fill-opacity:1;fill-rule:evenodd;stroke:none"
             id="path257" />
        </g>
        <g
           id="g259"
           transform="translate(144.7139,441.6182)">
          <path
             d="m 0,0 h -3.415 c -5.417,0 -9.848,-4.432 -9.848,-9.849 0,-5.418 4.431,-9.849 9.848,-9.849 H 0 c 5.416,0 9.848,4.431 9.848,9.849 C 9.848,-4.432 5.416,0 0,0 m -73.535,0 h 40.151 c 5.417,0 9.849,-4.432 9.849,-9.849 0,-5.418 -4.433,-9.849 -9.849,-9.849 h -40.151 c -5.417,0 -9.848,4.431 -9.848,9.849 0,5.417 4.431,9.849 9.848,9.849"
             style="fill:#f04321;fill-opacity:1;fill-rule:evenodd;stroke:none"
             id="path261" />
        </g>
        <g
           id="g263"
           transform="translate(170.7954,428.6104)">
          <path
             d="m 0,0 h -2.294 c -2.83,0 -5.145,-2.315 -5.145,-5.144 0,-2.829 2.314,-5.145 5.145,-5.145 H 0 c 2.829,0 5.144,2.315 5.144,5.145 C 5.144,-2.314 2.828,0 0,0 m -56.629,0 h 38.681 c 2.828,0 5.144,-2.315 5.144,-5.144 0,-2.83 -2.316,-5.145 -5.144,-5.145 h -38.681 c -2.829,0 -5.144,2.315 -5.144,5.145 0,2.83 2.315,5.144 5.144,5.144"
             style="fill:#f47366;fill-opacity:1;fill-rule:evenodd;stroke:none"
             id="path265" />
        </g>
        <g
           id="g267"
           transform="translate(193.8979,450.8354)">
          <path
             d="m 0,0 42.615,46.661 c 9.252,10.131 25.113,10.849 35.243,1.597 v 0 C 87.987,39.007 88.708,23.146 79.456,13.015 L 36.841,-33.646 C 27.59,-43.777 11.729,-44.496 1.598,-35.244 v 10e-4 C -8.534,-25.991 -9.253,-10.132 0,0"
             style="fill:#fab40a;fill-opacity:1;fill-rule:evenodd;stroke:none"
             id="path269" />
        </g>
        <g
           id="g271"
           transform="translate(273.7778,497.0166)">
          <path
             d="m 0,0 c 8.16,-9.41 8.167,-23.758 -0.424,-33.166 l -42.615,-46.661 c -8.592,-9.408 -22.883,-10.699 -32.992,-3.424 6.473,-4.049 15.175,-3.03 20.5,2.801 l 54.596,59.781 C 4.391,-14.837 4.618,-6.079 0,0"
             style="fill:#f2a50f;fill-opacity:1;fill-rule:evenodd;stroke:none"
             id="path273" />
        </g>
        <g
           id="g275"
           transform="translate(239.6001,493.4189)">
          <path
             d="m 0,0 -2.302,-2.521 c -3.652,-4 -3.369,-10.261 0.631,-13.915 4,-3.653 10.261,-3.369 13.914,0.631 l 2.302,2.52 c 3.654,4.001 3.369,10.262 -0.63,13.916 C 9.915,4.283 3.653,4 0,0 m -42.043,-46.036 19.531,21.385 c 3.653,4 9.913,4.284 13.914,0.63 4,-3.652 4.284,-9.914 0.631,-13.914 l -19.531,-21.384 c -3.652,-4 -9.913,-4.284 -13.913,-0.631 -4.001,3.653 -4.284,9.914 -0.632,13.914"
             style="fill:#fad41a;fill-opacity:1;fill-rule:evenodd;stroke:none"
             id="path277" />
        </g>
        <g
           id="g279"
           transform="translate(256.9341,493.1089)">
          <path
             d="m 0,0 -1.548,-1.694 c -1.907,-2.088 -1.759,-5.36 0.33,-7.267 v -10e-4 c 2.088,-1.908 5.36,-1.76 7.267,0.33 l 1.548,1.693 c 1.908,2.09 1.759,5.36 -0.329,7.268 L 7.267,0.33 C 5.179,2.237 1.906,2.087 0,0 m -32.313,-35.381 20.209,22.128 c 1.908,2.089 5.178,2.237 7.268,0.33 v -10e-4 c 2.088,-1.908 2.236,-5.178 0.329,-7.267 L -24.716,-42.32 c -1.907,-2.087 -5.178,-2.237 -7.266,-0.328 h -0.001 c -2.089,1.908 -2.239,5.178 -0.33,7.267"
             style="fill:#fbef93;fill-opacity:1;fill-rule:evenodd;stroke:none"
             id="path281" />
        </g>
        <g
           id="g283"
           transform="translate(457.2275,311.8608)">
          <path
             d="m 0,0 42.613,46.661 c 9.254,10.132 25.114,10.85 35.243,1.598 h 0.002 C 87.988,39.008 88.707,23.146 79.453,13.016 L 36.84,-33.645 C 27.588,-43.776 11.729,-44.496 1.598,-35.243 H 1.596 C -8.533,-25.991 -9.252,-10.129 0,0"
             style="fill:#fab40a;fill-opacity:1;fill-rule:evenodd;stroke:none"
             id="path285" />
        </g>
        <g
           id="g287"
           transform="translate(537.1064,358.0435)">
          <path
             d="m 0,0 c 8.16,-9.409 8.168,-23.759 -0.426,-33.167 l -42.613,-46.661 c -8.592,-9.407 -22.883,-10.699 -32.992,-3.423 6.472,-4.05 15.174,-3.033 20.5,2.8 L -0.934,-20.67 C 4.393,-14.838 4.619,-6.08 0,0"
             style="fill:#f2a50f;fill-opacity:1;fill-rule:evenodd;stroke:none"
             id="path289" />
        </g>
        <g
           id="g291"
           transform="translate(502.9287,354.4443)">
          <path
             d="m 0,0 -2.301,-2.521 c -3.654,-3.999 -3.371,-10.26 0.631,-13.915 4,-3.651 10.26,-3.369 13.912,0.632 l 2.303,2.522 c 3.652,3.999 3.369,10.26 -0.629,13.913 C 9.914,4.285 3.652,4 0,0 m -42.043,-46.034 19.531,21.384 c 3.653,3.999 9.914,4.283 13.914,0.63 4,-3.653 4.284,-9.914 0.631,-13.915 l -19.531,-21.384 c -3.652,-3.999 -9.914,-4.285 -13.914,-0.63 -4,3.652 -4.283,9.914 -0.631,13.915"
             style="fill:#fad41a;fill-opacity:1;fill-rule:evenodd;stroke:none"
             id="path293" />
        </g>
        <g
           id="g295"
           transform="translate(520.2646,354.1357)">
          <path
             d="m 0,0 -1.549,-1.695 c -1.908,-2.089 -1.76,-5.36 0.328,-7.267 l 0.002,-0.002 c 2.088,-1.906 5.358,-1.758 7.268,0.33 l 1.547,1.696 C 9.502,-4.85 9.355,-1.579 7.266,0.329 5.176,2.237 1.904,2.087 0,0 m -32.314,-35.381 20.209,22.127 c 1.908,2.09 5.177,2.238 7.267,0.331 v -0.002 c 2.09,-1.907 2.236,-5.179 0.33,-7.267 L -24.719,-42.32 c -1.906,-2.088 -5.176,-2.236 -7.265,-0.329 -2.09,1.907 -2.239,5.179 -0.33,7.268"
             style="fill:#fbef93;fill-opacity:1;fill-rule:evenodd;stroke:none"
             id="path297" />
        </g>
        <g
           id="g299"
           transform="translate(466.9814,179.4229)">
          <path
             d="m 0,0 -28.602,56.349 c -6.211,12.235 -1.279,27.327 10.956,33.536 C -5.414,96.094 9.68,91.164 15.889,78.93 L 44.49,22.58 C 50.699,10.35 45.771,-4.744 33.535,-10.955 21.301,-17.164 6.209,-12.235 0,0"
             style="fill:#e13022;fill-opacity:1;fill-rule:evenodd;stroke:none"
             id="path301" />
        </g>
        <g
           id="g303"
           transform="translate(451.9912,270.4658)">
          <path
             d="m 0,0 c 11.686,4.311 25.111,-0.75 30.879,-12.113 l 28.601,-56.35 c 5.766,-11.36 1.926,-25.184 -8.451,-32.073 6.075,4.626 8.196,13.125 4.621,20.168 L 19.008,-8.175 C 15.434,-1.132 7.32,2.175 0,0"
             style="fill:#cc2d23;fill-opacity:1;fill-rule:evenodd;stroke:none"
             id="path305" />
        </g>
        <g
           id="g307"
           transform="translate(443.2861,237.2207)">
          <path
             d="m 0,0 1.545,-3.044 c 2.451,-4.83 8.41,-6.776 13.24,-4.326 4.832,2.454 6.777,8.411 4.324,13.242 L 17.565,8.915 C 15.113,13.747 9.156,15.692 4.324,13.24 -0.506,10.788 -2.451,4.829 0,0 m 28.217,-55.593 -13.108,25.824 c -2.451,4.832 -0.505,10.789 4.325,13.24 4.832,2.452 10.789,0.507 13.24,-4.325 l 13.109,-25.825 c 2.451,-4.829 0.504,-10.786 -4.326,-13.24 -4.83,-2.45 -10.787,-0.505 -13.24,4.326"
             style="fill:#f04321;fill-opacity:1;fill-rule:evenodd;stroke:none"
             id="path309" />
        </g>
        <g
           id="g311"
           transform="translate(449.7002,253.3271)">
          <path
             d="m 0,0 1.037,-2.047 c 1.279,-2.519 4.393,-3.537 6.916,-2.259 2.522,1.282 3.539,4.393 2.258,6.916 L 9.172,4.656 C 7.893,7.18 4.779,8.197 2.258,6.916 H 2.256 C -0.266,5.635 -1.281,2.521 0,0 M 21.685,-42.727 8.121,-16.004 c -1.281,2.524 -0.264,5.636 2.258,6.914 l 0.002,0.002 c 2.521,1.28 5.635,0.261 6.914,-2.259 L 30.859,-38.07 c 1.282,-2.524 0.264,-5.635 -2.259,-6.916 -2.524,-1.281 -5.635,-0.264 -6.915,2.259"
             style="fill:#f47366;fill-opacity:1;fill-rule:evenodd;stroke:none"
             id="path313" />
        </g>
      </g>
    </g>
  </g>
</svg>
